<svg width="18" height="18" viewBox="0 0 18 18" fill="none" xmlns="http://www.w3.org/2000/svg">
<path d="M16.0097 7.47696L16 7.52551V7.5285L15.9817 7.53767L15.9258 7.59212L12.8508 10.5921L12.6619 10.7764L12.7075 11.0364L13.4571 15.3088C13.4824 15.4656 13.392 15.5857 13.2861 15.625H13.2859H13.2857H13.2854H13.2852H13.285H13.2848H13.2845H13.2843H13.2841H13.2839H13.2836H13.2834H13.2832H13.283H13.2827H13.2825H13.2823H13.2821H13.2818H13.2816H13.2814H13.2812H13.281H13.2807H13.2805H13.2803H13.2801H13.2798H13.2796H13.2794H13.2792H13.279H13.2787H13.2785H13.2783H13.2781H13.2779H13.2776H13.2774H13.2772H13.277H13.2768H13.2765H13.2763H13.2761H13.2759H13.2757H13.2754H13.2752H13.275H13.2748H13.2746H13.2743H13.2741H13.2739H13.2737H13.2735H13.2732H13.273H13.2728H13.2726H13.2724H13.2721H13.2719H13.2717H13.2715H13.2713H13.271H13.2708H13.2706H13.2704H13.2702H13.2699H13.2697H13.2695H13.2693H13.269H13.2688H13.2686H13.2684H13.2682H13.2679H13.2677H13.2675H13.2673H13.267H13.2668H13.2666H13.2664H13.2661H13.2659H13.2657H13.2655H13.2652H13.265H13.2648H13.2646H13.2643H13.2641H13.2639H13.2636H13.2634H13.2632H13.263H13.2627H13.2625H13.2623H13.262H13.2618H13.2616H13.2613H13.2611H13.2609H13.2606H13.2604H13.2602H13.2599H13.2597H13.2595H13.2592H13.259H13.2588H13.2585H13.2583H13.258H13.2578H13.2576H13.2573H13.2571H13.2568H13.2566H13.2564H13.2561H13.2559H13.2556H13.2554H13.2551H13.2549H13.2547H13.2544H13.2542H13.2539H13.2537H13.2534H13.2532H13.2529H13.2527H13.2524H13.2522H13.2519H13.2517H13.2514H13.2511H13.2509H13.2506H13.2504H13.2501H13.2499H13.2496H13.2493H13.2491H13.2488H13.2486H13.2483H13.248H13.2478H13.2475H13.2472H13.247H13.2467H13.2464H13.2462H13.2459H13.2456H13.2454H13.2451H13.2448H13.2445H13.2443H13.244H13.2437H13.2434H13.2431H13.2429H13.2426H13.2423H13.242H13.2417H13.2415H13.2412H13.2409H13.2406H13.2403H13.24H13.2397H13.2394H13.2392H13.2389H13.2386H13.2383H13.238H13.2377H13.2374H13.2371H13.2368H13.2365H13.2362H13.2359H13.2356H13.2353H13.235H13.2347H13.2343H13.234H13.2337H13.2334H13.2331H13.2328H13.2325H13.2322H13.2318H13.2315H13.2312H13.2309H13.2306H13.2302H13.2299H13.2296H13.2293H13.2289H13.2286H13.2283H13.2279H13.2276H13.2273H13.2269H13.2266H13.2263H13.2259H13.2256H13.2252H13.2249H13.2246H13.2242H13.2239H13.2235H13.2232H13.2228H13.2225H13.2221H13.2218H13.2214H13.221H13.2207H13.2203H13.22H13.2196H13.2192H13.2189H13.2185H13.2181H13.2178H13.2174H13.217H13.2167H13.2163H13.2159H13.2155H13.2151H13.2148H13.2144H13.214H13.2136H13.2132H13.2128H13.2124H13.212H13.2117H13.2113H13.2109H13.2105H13.2101H13.2097H13.2093H13.2089H13.2085H13.208H13.2076H13.2072H13.2068H13.2064H13.206H13.2056H13.2052H13.2047H13.2043H13.2039H13.2035H13.203H13.2026H13.2022H13.2017H13.2013H13.2009H13.2004H13.2C13.161 15.625 13.1317 15.625 13.1048 15.6241C13.0985 15.6239 13.0929 15.6237 13.0878 15.6234L13.0589 15.6081L9.23394 13.5831L9 13.4593L8.76606 13.5831L4.94106 15.6081L4.92923 15.6144L4.91775 15.6213C4.8546 15.6592 4.79439 15.6632 4.73742 15.6461C4.68076 15.6291 4.61646 15.5868 4.56581 15.5117C4.55638 15.4861 4.55122 15.4472 4.55019 15.3424L5.29248 11.1114L5.33809 10.8514L5.14916 10.6671L2.07685 7.66975C1.97382 7.56527 1.97439 7.43274 2.07855 7.32857L2.13593 7.27119L2.14605 7.25095C2.15416 7.25038 2.16377 7.25001 2.175 7.25001H2.20992L2.24449 7.24516L6.51949 6.64516L6.78462 6.60795L6.90063 6.36666L8.76371 2.49145C8.81468 2.41437 8.87997 2.37116 8.93742 2.35393C8.99439 2.33684 9.0546 2.34087 9.11775 2.37876L9.13422 2.38864L9.15139 2.39723C9.18474 2.4139 9.19684 2.42309 9.19958 2.42543C9.20192 2.42817 9.21111 2.44026 9.22779 2.47362L11.1778 6.37362L11.2953 6.60864L11.5555 6.64516L15.8305 7.24516L15.8651 7.25001H15.8948C15.9001 7.25177 15.9261 7.2619 15.9603 7.31023C15.9814 7.34013 15.997 7.37459 16.0052 7.40776C16.0134 7.44095 16.0122 7.46448 16.0097 7.47696Z" stroke="#C45500"/>
</svg>
