<svg width="18" height="18" viewBox="0 0 18 18" fill="none" xmlns="http://www.w3.org/2000/svg">
<path d="M5.89649 6.58521L6.15663 6.54741L6.27296 6.31169L8.29117 2.22235L7.8428 2.00106L8.29117 2.22235C8.29923 2.20601 8.30738 2.19958 8.31349 2.19596C8.32138 2.19128 8.33303 2.1875 8.34721 2.1875C8.36139 2.1875 8.37305 2.19128 8.38094 2.19596C8.38704 2.19958 8.3952 2.20601 8.40326 2.22235L8.40326 2.22235L10.4215 6.31169L10.5378 6.54741L10.798 6.58521L15.3108 7.24097L15.3827 6.74617L15.3108 7.24097C15.3288 7.24359 15.3375 7.24936 15.3428 7.25405C15.3497 7.26011 15.3569 7.27003 15.3613 7.28351C15.3656 7.297 15.3656 7.30925 15.3636 7.31818C15.3621 7.32509 15.3585 7.33483 15.3454 7.34755L15.3454 7.34757L12.0799 10.5307L11.8917 10.7142L11.9361 10.9733L12.7069 15.4679L12.707 15.468C12.71 15.4859 12.7072 15.4958 12.7044 15.5023C12.7008 15.5108 12.6936 15.5207 12.6821 15.529C12.6706 15.5373 12.659 15.5411 12.6498 15.542C12.6428 15.5426 12.6324 15.5422 12.6163 15.5338C12.6163 15.5338 12.6163 15.5338 12.6163 15.5338L8.57988 13.4117L8.34721 13.2894L8.11454 13.4117L4.07817 15.5338C4.07815 15.5338 4.07814 15.5338 4.07812 15.5338C4.06203 15.5422 4.05167 15.5426 4.0446 15.542C4.03546 15.5411 4.02379 15.5373 4.01231 15.529C4.00082 15.5206 3.99361 15.5107 3.98998 15.5023C3.98717 15.4958 3.98436 15.4858 3.98743 15.4679L3.49463 15.3834L3.98743 15.4679L4.75833 10.9733L4.80276 10.7142L4.61453 10.5307L1.34899 7.34757C1.33594 7.33485 1.33235 7.32511 1.3308 7.31819C1.32879 7.30924 1.32879 7.29698 1.33317 7.2835C1.33755 7.27001 1.34475 7.2601 1.35164 7.25404C1.35696 7.24936 1.36559 7.24359 1.38362 7.24097L5.89649 6.58521ZM7.84717 12.6563L7.84717 13.1563H8.34717C8.35745 13.1563 8.36734 13.1587 8.37627 13.1634L8.37629 13.1634L11.6657 14.8927L12.5624 15.3642L12.3911 14.3657L11.763 10.703C11.763 10.703 11.763 10.7029 11.7629 10.7029C11.7595 10.6825 11.7663 10.6619 11.7808 10.6477L11.7809 10.6476L14.442 8.05362L15.1675 7.34646L14.1649 7.20077L10.4873 6.66639C10.4873 6.66639 10.4873 6.66639 10.4873 6.66639C10.467 6.66342 10.4494 6.65063 10.4403 6.6322L9.9919 6.85348L10.4403 6.6322L8.79558 3.29972L7.84721 3.521L7.84717 12.6563Z" fill="#F2A742" stroke="#C45500"/>
</svg>
